<svg width="20" height="20" viewBox="0 0 20 20" fill="none" xmlns="http://www.w3.org/2000/svg">
<path d="M19.3538 18.647L14.4908 13.784C15.7368 12.373 16.4998 10.526 16.4998 8.5C16.4998 4.089 12.9108 0.5 8.49976 0.5C4.08876 0.5 0.499756 4.089 0.499756 8.5C0.499756 12.911 4.08876 16.5 8.49976 16.5C10.5258 16.5 12.3728 15.737 13.7838 14.491L18.6468 19.354C18.7448 19.452 18.8728 19.5 19.0008 19.5C19.1288 19.5 19.2568 19.451 19.3548 19.354C19.5488 19.159 19.5488 18.843 19.3538 18.647ZM8.49976 15.501C4.63976 15.501 1.49976 12.361 1.49976 8.50101C1.49976 4.64101 4.63976 1.50101 8.49976 1.50101C12.3598 1.50101 15.4998 4.64101 15.4998 8.50101C15.4998 12.361 12.3598 15.501 8.49976 15.501Z" fill="#000"/>
</svg>
