<?xml version="1.0" encoding="UTF-8"?>
<svg id="Layer_2" data-name="Layer 2" xmlns="http://www.w3.org/2000/svg" viewBox="0 0 400 220">
  <defs>
    <style>
      .cls-1 {
        fill: #fff;
      }

      .cls-2 {
        fill: #f3bd98;
      }

      .cls-3 {
        fill: #f66824;
      }

      .cls-4 {
        fill: #f6ccaf;
      }

      .cls-5 {
        fill: #fc6;
      }

      .cls-6 {
        fill: #84b749;
      }

      .cls-7 {
        fill: #374f68;
      }

      .cls-8 {
        fill: #6f9a3d;
      }

      .cls-9 {
        fill: #ffba55;
      }

      .cls-10 {
        fill: #1f2f42;
      }

      .cls-11 {
        fill: #ffa92c;
      }

      .cls-12 {
        fill: #9dcc6b;
      }

      .cls-13 {
        fill: #e7a273;
      }

      .cls-14 {
        fill: #425b72;
      }

      .cls-15 {
        fill: #f8834b;
      }

      .cls-16 {
        fill: #678c38;
      }
    </style>
  </defs>
  <g id="Layer_1-2" data-name="Layer 1">
    <g>
      <rect class="cls-1" width="400" height="220"/>
      <g>
        <path class="cls-12" d="m194.88,73.28c-9.88-6.25-1.27-21.44,9.28-15.51-37.58-23.27,18.88,11.72-43.05-26.67-.55-.34-1.22-.46-1.85-.32-.64.16-1.19.56-1.53,1.12l-17.05,28.3c-.68,1.14-.32,2.61.8,3.31l58.45,36.92c1.11.72,2.59.41,3.32-.7,0-.01.01-.02.02-.03.56-.88,9.72-15.04,9.89-15.37l-18.27-11.05Z"/>
        <path class="cls-12" d="m194.88,73.28c-9.88-6.24-1.28-21.44,9.28-15.51-37.59-23.31,9.31,5.79-32.92-20.38-2.53,7.85-13.77,10.66-19.65,4.72l-10.91,18.09c-.68,1.14-.32,2.61.8,3.31l58.44,36.92c1.11.72,2.6.41,3.32-.7,0,0,.01-.02.02-.03l9.89-15.36-18.26-11.06Z"/>
        <path class="cls-6" d="m214.44,82.36l-1.29,1.97-18.26-11.06c-5.74-3.22-5.71-12.33,0-15.54l.02.02c2.84-1.74,6.41-1.74,9.25,0l.05.02c2.71,1.7.18,5.81-2.56,4.14-2.99-1.99-7.06,1.08-6.14,4.51.24,1.12.92,2.09,1.9,2.68l16.24,9.84c1.15.7,1.52,2.19.82,3.34-.01.02-.03.05-.04.07h0Z"/>
        <path class="cls-4" d="m249.77,45.28l-22.11-12.42c-9.42-5.34-21.23-3.86-29.03,3.65l-11.2,10.88c.25.15,16.98,10.53,16.73,10.37-10.54-5.93-19.17,9.26-9.28,15.51l22.96,13.9c11.24,6.73,19.59-1.52,28.76-7.06-.23-.56-.34-1.17-.34-1.78v-26.79c.02-2.6,2.06-4.73,4.65-4.87-.18-.6-.59-1.11-1.14-1.41h0Z"/>
        <path class="cls-2" d="m250.92,46.69c-1.69.13-2.96.91-3.7,2.02l-19.55-10.98c-9.42-5.34-21.23-3.86-29.03,3.65l-8.16,7.91-3.04-1.9,11.2-10.88c7.8-7.51,19.61-9,29.03-3.65l22.11,12.42c.55.3.96.81,1.14,1.41Z"/>
        <path class="cls-5" d="m217.05,173.32h-48.7c-1.34,0-2.44-1.09-2.44-2.44v-56.01c0-4.03,3.27-7.3,7.31-7.31h58.44c4.03,0,7.3,3.27,7.31,7.31v38.96c0,.7-.3,1.37-.83,1.83l-19.48,17.05c-.44.39-1.01.6-1.6.6h0Z"/>
        <path class="cls-9" d="m219.48,144.09h-7.31c-3.18-.01-3.19-4.86,0-4.87h7.31c3.18.01,3.19,4.86,0,4.87Z"/>
        <path class="cls-15" d="m208.37,129.06l-5.93-4.05-5.93,4.05c-1.53,1.12-3.87-.11-3.81-2.01v-17.05c0-1.34,1.09-2.44,2.44-2.44h14.61c1.34,0,2.43,1.09,2.43,2.44v17.05c.06,1.9-2.27,3.13-3.81,2.01h0Z"/>
        <path class="cls-5" d="m217.05,173.32h-48.7c-1.34,0-2.44-1.09-2.44-2.44v-56.01c0-4.03,3.27-7.3,7.31-7.31h58.44c4.03,0,7.3,3.27,7.31,7.31v38.96c0,.7-.3,1.37-.83,1.83l-19.48,17.05c-.44.39-1.01.6-1.6.6h0Z"/>
        <path class="cls-9" d="m219.48,144.09h-7.31c-3.18-.01-3.19-4.86,0-4.87h7.31c3.18.01,3.19,4.86,0,4.87Z"/>
        <path class="cls-15" d="m208.37,129.06l-5.93-4.05-5.93,4.05c-1.53,1.12-3.87-.11-3.81-2.01v-17.05c0-1.34,1.09-2.44,2.44-2.44h14.61c1.34,0,2.43,1.09,2.43,2.44v17.05c.06,1.9-2.27,3.13-3.81,2.01h0Z"/>
        <path class="cls-9" d="m231.66,107.57h-29.22v65.75h14.61c.59,0,1.16-.22,1.61-.61l19.48-17.05c.53-.46.83-1.13.83-1.83v-38.96c-.01-4.03-3.28-7.29-7.31-7.31Z"/>
        <path class="cls-11" d="m219.48,144.09h-7.31c-3.18-.01-3.19-4.86,0-4.87h7.31c3.18.01,3.19,4.86,0,4.87Z"/>
        <path class="cls-3" d="m209.74,107.57h-7.31v17.43l5.94,4.07c1.51,1.12,3.86-.13,3.8-2.02v-17.05c0-1.34-1.09-2.43-2.44-2.43h0Z"/>
        <g>
          <path class="cls-8" d="m171.24,37.39c-2.53,7.85-13.77,10.66-19.65,4.72l6.14-10.2c.69-1.15,2.19-1.52,3.34-.83.02,0,.03.02.05.03.3.18,9.82,6.09,10.13,6.28Z"/>
          <path class="cls-8" d="m154.95,61.47c0,3.13-1.21,6.15-3.39,8.4-2.42-1.51-7.63-4.81-10.08-6.36-1.12-.7-1.48-2.17-.8-3.31l3.56-5.89,2.58-4.31c4.87,1.71,8.13,6.31,8.13,11.47Z"/>
          <path class="cls-8" d="m210.06,89.18l-2.75,4.26-4.04,6.26c-.71,1.12-2.19,1.46-3.31.75-.01,0-.02-.01-.03-.02-2.47-1.56-7.6-4.81-10.03-6.36,2.39-8.43,14.12-11.27,20.16-4.89h0Z"/>
          <path class="cls-8" d="m180.52,75.91c-12.87-.41-12.87-19.07,0-19.48,12.87.41,12.87,19.07,0,19.48Z"/>
        </g>
        <path class="cls-4" d="m245.39,144.53c-2.03-3.06-6.03-4.12-9.3-2.46-4.13,2.01-34.46,16.81-37.74,18.41.3-.51.54-1.05.73-1.61.38-.99.61-2.03.68-3.09v-.02c.43-6.26-4.63-11.69-10.86-11.66h-16.31l-.75-2.29c-.98-2.99-3.77-5.02-6.92-5.02h-11.18c-1.34,0-2.43,1.09-2.44,2.44v33.9c0,.95.56,1.81,1.41,2.22l26.59,12.25c11.4,5.1,24.73,2.97,33.97-5.43l30.98-28.05c2.76-2.43,3.25-6.55,1.14-9.57h0Z"/>
        <path class="cls-2" d="m244.25,154.1l-30.97,28.05c-9.24,8.4-22.57,10.53-33.97,5.43l-26.59-12.25c-.86-.41-1.4-1.27-1.41-2.22v-4.87c0,.95.56,1.81,1.41,2.22l26.59,12.25c11.4,5.1,24.73,2.97,33.97-5.43l30.97-28.05c.9-.81,1.58-1.83,2-2.97,1.02,2.78.23,5.89-2,7.84h0Z"/>
        <path class="cls-14" d="m148.85,183.06h-14.6c-1.34,0-2.44-1.09-2.44-2.44h0v-46.27c0-1.34,1.09-2.44,2.44-2.44h14.6c4.04,0,7.31,3.28,7.32,7.32v36.5c0,4.04-3.28,7.31-7.32,7.32h0Z"/>
        <path class="cls-7" d="m156.17,172.05v3.68c0,4.05-3.28,7.32-7.33,7.33h-14.59c-1.34,0-2.43-1.09-2.44-2.44v-8.57h24.35Z"/>
        <path class="cls-13" d="m204.19,157.63c-.24,5.82-5.01,10.42-10.84,10.45h-10.81c-3.19-.01-3.19-4.86,0-4.87h10.81c2.02,0,3.9-1.03,4.99-2.73l5.84-2.85Z"/>
        <path class="cls-10" d="m146.43,165.49c-.01,3.18-4.86,3.18-4.87,0,.01-3.18,4.86-3.18,4.87,0Z"/>
        <path class="cls-13" d="m219.55,64.42c-.71,1.14-2.22,1.49-3.36.78l-1.36-.83c-4.42-2.74-15.57-9.63-19.85-12.3,2.86-1.74,6.46-1.72,9.3.05l14.46,8.94c1.15.71,1.51,2.21.8,3.36Z"/>
        <path class="cls-14" d="m265.75,85.65h-14.61c-4.03,0-7.3-3.27-7.31-7.31v-26.79c0-4.03,3.27-7.29,7.3-7.3h14.62c1.34,0,2.44,1.09,2.44,2.44h0v36.53c0,1.34-1.09,2.44-2.43,2.44h0Z"/>
        <path class="cls-7" d="m268.18,46.69v4.87h-24.35c0-4.03,3.26-7.3,7.29-7.31,0,0,.01,0,.02,0h14.61c1.34,0,2.43,1.09,2.43,2.44Z"/>
        <path class="cls-10" d="m258.44,73.47c-.01,3.18-4.86,3.18-4.87,0,.01-3.18,4.86-3.18,4.87,0Z"/>
        <path class="cls-6" d="m213.15,84.34l-.9,1.44-63.17-39.47,8.64-14.39c.35-.56.9-.96,1.53-1.12.63-.14,1.3-.03,1.85.32l43.05,26.67c-10.56-5.93-19.16,9.27-9.28,15.51l18.26,11.05Z"/>
        <path class="cls-16" d="m171.24,37.39c-2.53,7.85-13.77,10.66-19.65,4.72,1.46-2.45,4.64-7.73,6.14-10.2.35-.56.9-.96,1.53-1.12.63-.14,1.3-.03,1.85.32-.31-.18,7.77,4.79,10.13,6.28Z"/>
        <path class="cls-16" d="m190.26,66.17c.08-9.61-12.81-13.32-17.88-5.32l16.47,10.29c.91-1.5,1.4-3.22,1.41-4.97Z"/>
      </g>
    </g>
  </g>
</svg>