<?xml version="1.0" encoding="UTF-8"?>
<svg id="Layer_2" data-name="Layer 2" xmlns="http://www.w3.org/2000/svg" viewBox="0 0 400 220">
  <defs>
    <style>
      .cls-1 {
        fill: #fff;
      }

      .cls-2 {
        fill: #fbbc04;
      }

      .cls-3 {
        fill: #4285f4;
      }

      .cls-4 {
        fill: #34a853;
      }

      .cls-5 {
        fill: #5f6368;
      }

      .cls-6 {
        fill: #ea4335;
      }
    </style>
  </defs>
  <g id="Layer_1-2" data-name="Layer 1">
    <g>
      <rect class="cls-1" width="400" height="220"/>
      <g>
        <path class="cls-5" d="m190.8,108.33v39.12h-12.62V50.71h32.81c7.99,0,15.56,2.94,21.45,8.41,5.89,5.05,8.83,12.62,8.83,20.61s-2.94,15.14-8.83,20.61c-5.89,5.47-13.04,8.41-21.45,8.41l-20.19-.42h0Zm0-45.85v33.65h21.03c4.63,0,9.25-1.68,12.2-5.05,6.73-6.31,6.73-16.82.42-23.13l-.42-.42c-3.36-3.36-7.57-5.47-12.2-5.05h-21.03Z"/>
        <path class="cls-5" d="m270.29,79.31c9.25,0,16.4,2.52,21.87,7.57s7.99,11.78,7.99,20.19v40.38h-11.78v-9.25h-.42c-5.05,7.57-12.2,11.36-20.61,11.36-7.15,0-13.46-2.1-18.51-6.31-4.63-4.21-7.57-10.09-7.57-16.4,0-6.73,2.52-12.2,7.57-16.4s12.2-5.89,20.61-5.89c7.57,0,13.46,1.26,18.09,4.21v-2.94c0-4.21-1.68-8.41-5.05-10.94-3.36-2.94-7.57-4.63-12.2-4.63-7.15,0-12.62,2.94-16.4,8.83l-10.94-6.73c6.73-8.83,15.56-13.04,27.34-13.04Zm-15.98,47.95c0,3.36,1.68,6.31,4.21,7.99,2.94,2.1,6.31,3.36,9.67,3.36,5.05,0,10.09-2.1,13.88-5.89,4.21-3.79,6.31-8.41,6.31-13.46-3.79-2.94-9.25-4.63-16.4-4.63-5.05,0-9.25,1.26-12.62,3.79-3.36,2.1-5.05,5.05-5.05,8.83Z"/>
        <path class="cls-5" d="m368.29,81.41l-41.64,95.48h-12.62l15.56-33.23-27.34-61.83h13.46l19.77,47.53h.42l19.35-47.53h13.04v-.42Z"/>
        <path class="cls-3" d="m140.75,99.92c0-3.79-.42-7.57-.84-11.36h-52.57v21.45h29.86c-1.26,6.73-5.05,13.04-10.94,16.82v13.88h18.09c10.51-9.67,16.4-23.97,16.4-40.8Z"/>
        <path class="cls-4" d="m87.33,154.17c15.14,0,27.76-5.05,37.01-13.46l-18.09-13.88c-5.05,3.36-11.36,5.47-18.93,5.47-14.3,0-26.92-9.67-31.12-23.13h-18.51v14.3c9.67,18.93,28.6,30.7,49.63,30.7Z"/>
        <path class="cls-2" d="m56.21,109.17c-2.52-6.73-2.52-14.3,0-21.45v-14.3h-18.51c-7.99,15.56-7.99,34.07,0,50.05l18.51-14.3Z"/>
        <path class="cls-6" d="m87.33,65.01c7.99,0,15.56,2.94,21.45,8.41h0l15.98-15.98c-10.09-9.25-23.55-14.72-37.01-14.3-21.03,0-40.38,11.78-49.63,30.7l18.51,14.3c3.79-13.46,16.4-23.13,30.7-23.13Z"/>
      </g>
    </g>
  </g>
</svg>