<?xml version="1.0" encoding="UTF-8"?>
<svg id="Layer_2" data-name="Layer 2" xmlns="http://www.w3.org/2000/svg" viewBox="0 0 400 220">
  <defs>
    <style>
      .cls-1 {
        fill: #fff;
      }

      .cls-2 {
        fill: #84b740;
      }

      .cls-3 {
        fill: #27292d;
      }

      .cls-4 {
        fill: #259bd6;
      }
    </style>
  </defs>
  <g id="Layer_1-2" data-name="Layer 1">
    <g>
      <rect class="cls-1" width="400" height="220"/>
      <g>
        <rect class="cls-2" x="21.55" y="119.12" width="150.97" height="50.29"/>
        <rect class="cls-4" x="21.55" y="50.5" width="150.97" height="50.34"/>
        <path class="cls-3" d="m323.49,159.2l-.67.13c-2.33.45-3.18.63-4.89.63-3.94,0-8.61-2.02-8.61-11.52,0-4.89.81-11.39,8.16-11.39h.04c1.26.09,2.69.22,5.38,1.03l.58.18v20.93h0Zm1.21-47.38l-1.21.22v17.57l-1.08-.31-.31-.09c-1.21-.36-3.99-1.17-6.68-1.17-14.7,0-17.8,11.12-17.8,20.44,0,12.78,7.17,20.13,19.68,20.13,5.29,0,9.19-.54,13.13-1.84,3.63-1.17,4.93-2.82,4.93-6.37v-50.43c-3.5.63-7.13,1.26-10.67,1.84"/>
        <path class="cls-3" d="m367.2,159.51l-.63.18-2.24.58c-2.11.54-3.99.85-5.42.85-3.45,0-5.51-1.7-5.51-4.62,0-1.88.85-5.07,6.5-5.07h7.31v8.07Zm-5.15-31.69c-4.53,0-9.19.81-14.97,2.6l-3.77,1.12,1.26,8.52,3.68-1.21c3.85-1.26,8.65-2.06,12.24-2.06,1.61,0,6.54,0,6.54,5.33v2.33h-6.86c-12.51,0-18.29,3.99-18.29,12.55,0,7.31,5.33,11.7,14.3,11.7,2.78,0,6.63-.54,9.95-1.34l.18-.04.18.04,1.12.18c3.5.63,7.13,1.26,10.67,1.93v-27.97c0-9.05-5.47-13.67-16.23-13.67"/>
        <path class="cls-3" d="m280.1,159.51l-.63.18-2.24.58c-2.11.54-3.94.85-5.42.85-3.45,0-5.51-1.7-5.51-4.62,0-1.88.85-5.07,6.45-5.07h7.31l.04,8.07h0Zm-5.11-31.69c-4.57,0-9.19.81-14.97,2.6l-3.77,1.12,1.26,8.52,3.68-1.21c3.85-1.26,8.65-2.06,12.24-2.06,1.61,0,6.54,0,6.54,5.33v2.33h-6.86c-12.51,0-18.33,3.99-18.33,12.55,0,7.31,5.33,11.7,14.34,11.7,2.78,0,6.63-.54,9.95-1.34l.18-.04.18.04,1.08.18c3.54.63,7.13,1.26,10.67,1.97v-27.97c.04-9.14-5.42-13.72-16.18-13.72"/>
        <path class="cls-3" d="m232.9,127.91c-5.69,0-10.4,1.88-12.15,2.69l-.45.22-.4-.31c-2.42-1.75-5.96-2.64-10.89-2.64-4.35,0-8.43.63-12.86,1.93-3.81,1.17-5.29,3-5.29,6.45v31.96h11.92v-29.54l.58-.18c2.42-.81,3.85-.94,5.24-.94,3.45,0,5.2,1.84,5.2,5.42v25.28h11.74v-25.77c0-1.52-.31-2.42-.36-2.6l-.4-.76.81-.36c1.79-.81,3.77-1.21,5.83-1.21,2.38,0,5.2.94,5.2,5.42v25.28h11.7v-26.45c0-9.37-5.02-13.9-15.42-13.9"/>
        <path class="cls-3" d="m358.41,83.31c-1.75,0-4.66-.18-6.95-.63l-.67-.13v-17.26c0-1.43-.27-2.33-.31-2.47l-.36-.72.76-.31c.18-.09.36-.13.58-.22l.13-.09c.27-.09.54-.18.81-.27.13-.04.22-.09.31-.09,2.64-.72,5.07-.63,6.14-.72h.04c7.31,0,8.16,6.5,8.16,11.39-.04,9.5-4.75,11.52-8.65,11.52m-.04-32.81h-.31c-6.86,0-13.9,1.88-16.41,5.56-1.34,1.79-2.11,4.03-2.15,6.68h0v17.8c0,1.52-.31,2.11-.36,2.24l-.4.76h-21.65v-12.37h-.04c-.27-13.04-7.98-20.22-19.14-20.22h-10.89c-.45,3.18-.81,5.42-1.26,8.61h10.85c5.69,0,8.7,4.84,8.7,12.28v12.46l-.76-.4c-.13-.04-1.08-.36-2.56-.36h-18.74c-.36,2.38-.81,5.47-1.3,8.56h57.6c1.97-.4,4.26-.76,6.23-1.08,2.91,1.43,8.34,2.2,12.06,2.2,12.51,0,20.62-8.38,20.62-21.29-.04-12.78-7.89-21.16-20.08-21.43"/>
        <path class="cls-3" d="m257.38,97.34h.54c12.51,0,18.33-4.12,18.33-14.3,0-7.31-5.33-13.13-14.3-13.13h-11.52c-3.45,0-5.51-1.97-5.51-5.29,0-2.24.85-5.02,6.5-5.02h25.19c.54-3.27.81-5.33,1.3-8.61h-26.18c-12.19,0-18.33,5.11-18.33,13.63s5.33,12.82,14.3,12.82h11.52c3.45,0,5.51,2.73,5.51,5.6,0,1.88-.85,5.78-6.45,5.78h-1.93l-36.89-.09h-6.72c-5.69,0-9.68-3.23-9.68-10.71v-5.15c0-7.8,3.09-12.64,9.68-12.64h10.94c.49-3.32.81-5.42,1.26-8.56h-14.93c-11.16,0-18.87,7.49-19.14,20.53h0v5.83c.27,13.04,7.98,19.27,19.14,19.27h10.89l19.99.04h16.5Z"/>
      </g>
    </g>
  </g>
</svg>