<?xml version="1.0" encoding="UTF-8"?>
<svg id="Layer_2" data-name="Layer 2" xmlns="http://www.w3.org/2000/svg" viewBox="0 0 400 220">
  <defs>
    <style>
      .cls-1 {
        fill: #fff;
      }
    </style>
  </defs>
  <g id="Layer_1-2" data-name="Layer 1">
    <g>
      <rect class="cls-1" width="400" height="220"/>
      <path d="m97.47,60.76c-3.79,4.48-9.85,8.02-15.91,7.51-.76-6.06,2.21-12.5,5.68-16.48,3.79-4.61,10.42-7.89,15.78-8.14.63,6.31-1.83,12.5-5.55,17.11m5.49,8.71c-8.77-.5-16.29,4.99-20.45,4.99s-10.6-4.73-17.55-4.61c-9.03.13-17.42,5.24-22.03,13.38-9.47,16.29-2.46,40.4,6.69,53.66,4.48,6.56,9.85,13.76,16.92,13.51,6.69-.25,9.34-4.36,17.42-4.36s10.48,4.36,17.55,4.23c7.32-.13,11.93-6.56,16.41-13.13,5.11-7.45,7.2-14.71,7.32-15.09-.13-.13-14.14-5.49-14.27-21.65-.13-13.51,11.05-19.95,11.55-20.33-6.31-9.34-16.16-10.35-19.57-10.6m50.69-18.31v98.41h15.28v-33.65h21.15c19.32,0,32.89-13.26,32.89-32.45s-13.32-32.32-32.38-32.32h-36.93Zm15.28,12.88h17.61c13.26,0,20.83,7.07,20.83,19.51s-7.57,19.57-20.89,19.57h-17.55v-39.07Zm81.94,86.29c9.59,0,18.5-4.86,22.54-12.56h.32v11.8h14.14v-48.98c0-14.2-11.36-23.36-28.85-23.36-16.22,0-28.22,9.28-28.66,22.03h13.76c1.14-6.06,6.75-10.04,14.46-10.04,9.34,0,14.58,4.36,14.58,12.37v5.43l-19.06,1.14c-17.74,1.07-27.33,8.33-27.33,20.96s9.91,21.21,24.11,21.21Zm4.1-11.68c-8.14,0-13.32-3.91-13.32-9.91s4.99-9.78,14.52-10.35l16.98-1.07v5.55c0,9.22-7.83,15.78-18.18,15.78Zm51.76,37.69c14.9,0,21.9-5.68,28.03-22.91l26.83-75.24h-15.53l-17.99,58.14h-.32l-17.99-58.14h-15.97l25.88,71.65-1.39,4.36c-2.34,7.39-6.12,10.23-12.88,10.23-1.2,0-3.53-.13-4.48-.25v11.8c.88.25,4.67.38,5.81.38Z"/>
    </g>
  </g>
</svg>