<?xml version="1.0" encoding="UTF-8"?>
<svg id="Layer_2" data-name="Layer 2" xmlns="http://www.w3.org/2000/svg" viewBox="0 0 400 220">
  <defs>
    <style>
      .cls-1 {
        fill: #fff;
      }

      .cls-2 {
        fill: #f7ad00;
      }

      .cls-3 {
        fill: #346d94;
      }

      .cls-4 {
        fill: #ffc306;
      }

      .cls-5 {
        fill: #ced2dc;
      }

      .cls-6 {
        fill: #295474;
      }

      .cls-7 {
        fill: #49505b;
      }
    </style>
  </defs>
  <g id="Layer_1-2" data-name="Layer 1">
    <g>
      <rect class="cls-1" width="400" height="220"/>
      <g id="_017---Bank-Transfer" data-name="017---Bank-Transfer">
        <g>
          <path id="Rectangle" class="cls-5" d="m170.56,67.18h10.71v32.12h-10.71v-32.12Z"/>
          <path id="Rectangle-2" data-name="Rectangle" class="cls-5" d="m141.12,67.18h10.71v32.12h-10.71v-32.12Z"/>
          <path id="Rectangle-3" data-name="Rectangle" class="cls-5" d="m200,67.18h10.71v32.12h-10.71v-32.12Z"/>
        </g>
        <path id="Path" class="cls-6" d="m170.56,93.94h10.71c1.48,0,2.68,1.2,2.68,2.68v10.71h-16.06v-10.71c0-1.48,1.2-2.68,2.68-2.68Z"/>
        <path id="Path-2" data-name="Path" class="cls-6" d="m200,93.94h10.71c1.48,0,2.68,1.2,2.68,2.68v10.71h-16.06v-10.71c0-1.48,1.2-2.68,2.68-2.68Z"/>
        <path id="Path-3" data-name="Path" class="cls-6" d="m141.12,93.94h10.71c1.48,0,2.68,1.2,2.68,2.68v10.71h-16.06v-10.71c0-1.48,1.2-2.68,2.68-2.68Z"/>
        <path id="Rectangle-4" data-name="Rectangle" class="cls-5" d="m218.74,128.74h10.71v32.12h-10.71v-32.12Z"/>
        <path id="Rectangle-5" data-name="Rectangle" class="cls-5" d="m189.29,128.74h10.71v32.12h-10.71v-32.12Z"/>
        <path id="Rectangle-6" data-name="Rectangle" class="cls-5" d="m248.18,128.74h10.71v32.12h-10.71v-32.12Z"/>
        <path id="Path-4" data-name="Path" class="cls-2" d="m218.74,155.5h10.71c1.48,0,2.68,1.2,2.68,2.68v10.71h-16.06v-10.71c0-1.48,1.2-2.68,2.68-2.68Z"/>
        <path id="Path-5" data-name="Path" class="cls-2" d="m248.18,155.5h10.71c1.48,0,2.68,1.2,2.68,2.68v10.71h-16.06v-10.71c0-1.48,1.2-2.68,2.68-2.68Z"/>
        <path id="Path-6" data-name="Path" class="cls-2" d="m189.29,155.5h10.71c1.48,0,2.68,1.2,2.68,2.68v10.71h-16.06v-10.71c0-1.48,1.2-2.68,2.68-2.68Z"/>
        <path id="Path-7" data-name="Path" class="cls-3" d="m208.03,118.03h-77.62v-8.03c0-2.95,2.4-5.34,5.35-5.35h72.02l.24,13.38Z"/>
        <path id="Path-8" data-name="Path" class="cls-6" d="m191.97,126.06h-66.91c-1.48,0-2.68-1.2-2.68-2.68v-2.68c0-2.95,2.4-5.34,5.35-5.35h69.59l-5.35,10.71Z"/>
        <path id="Path-9" data-name="Path" class="cls-3" d="m227.44,72.53h-103.06c-.87,0-1.64-.58-1.9-1.41-.26-.83.04-1.74.75-2.24l50.49-35.79c1.31-.95,3.08-.95,4.39,0l50.49,35.79c.71.51,1.01,1.41.75,2.24-.26.83-1.03,1.4-1.9,1.41Z"/>
        <path id="Path-10" data-name="Path" class="cls-4" d="m183.94,166.21h80.29c2.96,0,5.35,2.4,5.35,5.35v8.03h-91v-8.03c0-2.96,2.4-5.35,5.35-5.35Z"/>
        <path id="Path-11" data-name="Path" class="cls-2" d="m275.62,134.09h-103.06c-.87,0-1.64-.58-1.9-1.41-.26-.83.04-1.74.75-2.24l50.49-35.79c1.31-.95,3.08-.95,4.39,0l50.49,35.79c.71.51,1.01,1.41.75,2.24-.26.83-1.03,1.4-1.9,1.41h0Z"/>
        <path id="Path-12" data-name="Path" class="cls-2" d="m175.91,176.91h96.35c2.96,0,5.35,2.4,5.35,5.35v2.68c0,1.48-1.2,2.68-2.68,2.68h-101.7c-1.48,0-2.68-1.2-2.68-2.68v-2.68c0-2.96,2.4-5.35,5.35-5.35Z"/>
        <path id="Path-13" data-name="Path" class="cls-7" d="m165,167.86c-.13-.33-.33-.62-.58-.87l-8.03-8.03c-1.05-1.01-2.72-1-3.75.03s-1.05,2.7-.03,3.75l3.46,3.46h-12.27c-5.91,0-10.71-4.79-10.71-10.71v-16.06c0-1.48-1.2-2.68-2.68-2.68s-2.68,1.2-2.68,2.68v16.06c0,8.87,7.19,16.05,16.06,16.06h12.27l-3.46,3.46c-.7.67-.97,1.67-.73,2.6s.98,1.67,1.91,1.91c.94.24,1.93-.03,2.6-.73l8.03-8.03c.25-.25.45-.55.58-.87.27-.65.27-1.39,0-2.04h0Z"/>
        <path id="Path-14" data-name="Path" class="cls-7" d="m266.13,70.64c-1.05-1.04-2.74-1.04-3.78,0l-3.46,3.46v-12.27c0-8.87-7.19-16.05-16.06-16.06h-16.06c-1.48,0-2.68,1.2-2.68,2.68s1.2,2.68,2.68,2.68h16.06c5.91,0,10.71,4.79,10.71,10.71v12.27l-3.46-3.46c-1.05-1.01-2.72-1-3.75.03s-1.05,2.7-.03,3.75l8.03,8.03c.5.5,1.18.79,1.89.79s1.39-.28,1.89-.79l8.03-8.03c1.04-1.05,1.04-2.74,0-3.78h0Z"/>
      </g>
    </g>
  </g>
</svg>