<?xml version="1.0" encoding="UTF-8"?>
<svg id="Layer_2" data-name="Layer 2" xmlns="http://www.w3.org/2000/svg" viewBox="0 0 400 220">
  <defs>
    <style>
      .cls-1 {
        fill: #e52836;
      }

      .cls-2 {
        fill: #fff;
      }

      .cls-3 {
        fill: #faa841;
      }

      .cls-3, .cls-4 {
        fill-rule: evenodd;
      }

      .cls-5 {
        fill: #ffb600;
      }

      .cls-6 {
        fill: #cb2026;
      }

      .cls-7 {
        fill: #f7981d;
      }

      .cls-4 {
        fill: #006cb5;
      }

      .cls-8 {
        fill: #dce5e5;
      }

      .cls-9 {
        fill: #ff5050;
      }

      .cls-10 {
        fill: #ff8500;
      }
    </style>
  </defs>
  <g id="Layer_1-2" data-name="Layer 1">
    <g>
      <rect class="cls-2" width="400" height="220"/>
      <g>
        <g>
          <path class="cls-5" d="m275.17,153.57c0,24.9-20.13,45.09-44.98,45.09-24.84,0-44.99-20.17-45-45.07v-.02c0-24.9,20.13-45.09,44.98-45.09s44.99,20.17,45,45.07v.02Z"/>
          <path class="cls-7" d="m230.17,108.47c24.84,0,44.99,20.17,45,45.07v.02c0,24.9-20.13,45.09-44.98,45.09-24.84,0-44.99-20.17-45-45.07"/>
          <path class="cls-10" d="m230.17,108.47c24.84,0,44.99,20.17,45,45.07v.02c0,24.9-20.13,45.09-44.98,45.09"/>
          <path class="cls-9" d="m169.53,108.48c-24.7.16-44.7,20.3-44.7,45.09s20.16,45.09,44.99,45.09c11.65,0,22.28-4.45,30.27-11.75h0c1.64-1.5,3.16-3.1,4.57-4.83h-9.22c-1.23-1.48-2.35-3.04-3.35-4.64h15.9c.97-1.55,1.84-3.16,2.63-4.83h-21.15c-.72-1.55-1.35-3.13-1.88-4.73h24.9c1.5-4.5,2.31-9.31,2.31-14.3,0-3.32-.36-6.55-1.03-9.66h-27.5c.34-1.6.77-3.19,1.28-4.73h24.91c-.56-1.66-1.21-3.26-1.94-4.83h-21.06c.76-1.62,1.62-3.2,2.58-4.73h15.88c-1.06-1.69-2.23-3.3-3.49-4.83h-8.86c1.37-1.61,2.88-3.14,4.51-4.55-7.99-7.3-18.61-11.76-30.27-11.76-.1,0-.2,0-.29,0h0Z"/>
          <path class="cls-1" d="m124.83,153.57c0,24.89,20.16,45.09,44.99,45.09,11.65,0,22.28-4.45,30.27-11.75h0c1.64-1.5,3.16-3.1,4.57-4.83h-9.22c-1.23-1.48-2.35-3.04-3.35-4.64h15.9c.97-1.55,1.84-3.16,2.63-4.83h-21.15c-.72-1.55-1.35-3.13-1.88-4.73h24.9c1.5-4.5,2.31-9.31,2.31-14.3,0-3.32-.36-6.55-1.03-9.66h-27.5c.34-1.6.77-3.19,1.28-4.73h24.91c-.56-1.66-1.21-3.26-1.94-4.83h-21.06c.76-1.62,1.62-3.2,2.58-4.73h15.88c-1.06-1.69-2.23-3.3-3.49-4.83h-8.86c1.37-1.61,2.88-3.14,4.51-4.55-7.99-7.3-18.61-11.76-30.27-11.76h-.29"/>
          <path class="cls-6" d="m169.83,198.66c11.65,0,22.28-4.45,30.27-11.75h0c1.64-1.5,3.16-3.1,4.57-4.83h-9.22c-1.23-1.48-2.35-3.04-3.35-4.64h15.9c.97-1.55,1.84-3.16,2.63-4.83h-21.15c-.72-1.55-1.35-3.13-1.88-4.73h24.9c1.5-4.5,2.31-9.31,2.31-14.3,0-3.32-.36-6.55-1.03-9.66h-27.5c.34-1.6.77-3.19,1.28-4.73h24.91c-.56-1.66-1.21-3.26-1.94-4.83h-21.06c.76-1.62,1.62-3.2,2.58-4.73h15.88c-1.06-1.69-2.23-3.3-3.49-4.83h-8.86c1.37-1.61,2.88-3.14,4.51-4.55-7.99-7.3-18.61-11.76-30.27-11.76h-.29"/>
          <path class="cls-2" d="m186.01,165.05l.6-4.08c-.33,0-.82.14-1.24.14-1.66,0-1.85-.89-1.74-1.55l1.35-8.33h2.54l.62-4.52h-2.39l.49-2.8h-4.79c-.11.11-2.83,15.78-2.83,17.7,0,2.83,1.58,4.08,3.82,4.07,1.75-.02,3.11-.51,3.59-.63h-.02Z"/>
          <path class="cls-2" d="m187.52,157.27c0,6.79,4.47,8.4,8.28,8.4,3.51,0,5.06-.79,5.06-.79l.85-4.63s-2.68,1.18-5.09,1.18c-5.14,0-4.24-3.84-4.24-3.84h9.73s.63-3.11.63-4.38c0-3.16-1.57-7.01-6.83-7.01-4.82,0-8.39,5.2-8.39,11.07h0Zm8.4-6.78c2.7,0,2.2,3.04,2.2,3.29h-5.32c0-.32.5-3.29,3.12-3.29h0Z"/>
          <path class="cls-2" d="m226.25,165.05l.86-5.24s-2.35,1.19-3.96,1.19c-3.39,0-4.76-2.6-4.76-5.39,0-5.67,2.92-8.79,6.18-8.79,2.44,0,4.4,1.37,4.4,1.37l.78-5.08s-2.9-1.18-5.39-1.18c-5.53,0-10.92,4.81-10.92,13.84,0,5.98,2.91,9.94,8.62,9.94,1.61,0,4.19-.66,4.19-.66h0Z"/>
          <path class="cls-2" d="m159.66,146.26c-3.29,0-5.8,1.05-5.8,1.05l-.7,4.13s2.08-.85,5.22-.85c1.78,0,3.09.2,3.09,1.66,0,.88-.16,1.21-.16,1.21,0,0-1.41-.12-2.06-.12-4.13,0-8.49,1.77-8.49,7.11,0,4.21,2.85,5.17,4.63,5.17,3.38,0,4.83-2.2,4.92-2.2l-.15,1.84h4.22l1.88-13.22c0-5.6-4.88-5.79-6.58-5.79v.02Zm1.03,10.77c.09.82-.51,4.59-3.39,4.59-1.49,0-1.87-1.14-1.87-1.81,0-1.31.72-2.9,4.23-2.9.82,0,.91.09,1.04.11h0Z"/>
          <path class="cls-2" d="m170.72,165.55c1.08,0,7.25.28,7.25-6.1,0-5.96-5.71-4.78-5.71-7.19,0-1.19.93-1.56,2.63-1.56.67,0,3.28.22,3.28.22l.61-4.24s-1.68-.37-4.42-.37c-3.55,0-7.15,1.41-7.15,6.26,0,5.5,6,4.94,6,7.26,0,1.55-1.67,1.67-2.97,1.67-2.23,0-4.24-.77-4.25-.73l-.64,4.19c.11.04,1.36.59,5.37.59h0Z"/>
          <path class="cls-2" d="m265.93,142.45l-1.03,6.42s-1.81-2.5-4.63-2.5c-4.39,0-8.04,5.3-8.04,11.4,0,3.94,1.95,7.79,5.94,7.79,2.87,0,4.46-2,4.46-2l-.21,1.71h4.66l3.66-22.83h-4.81Zm-2.22,12.54c0,2.53-1.26,5.92-3.85,5.92-1.73,0-2.53-1.45-2.53-3.73,0-3.72,1.66-6.18,3.77-6.18,1.73,0,2.61,1.19,2.61,3.99Z"/>
          <path class="cls-2" d="m133.72,165.3l2.92-17.24.43,17.24h3.3l6.16-17.24-2.73,17.24h4.9l3.78-22.85h-7.59l-4.73,14.02-.25-14.02h-6.99l-3.83,22.85h4.61,0Z"/>
          <path class="cls-2" d="m207.52,165.33c1.4-7.95,1.65-14.4,4.98-13.22.58-3.07,1.14-4.26,1.78-5.57,0,0-.3-.06-.92-.06-2.14,0-3.73,2.94-3.73,2.94l.42-2.7h-4.46l-2.99,18.61h4.92,0Z"/>
          <path class="cls-2" d="m237.3,146.26c-3.29,0-5.81,1.05-5.81,1.05l-.69,4.13s2.07-.85,5.22-.85c1.79,0,3.09.2,3.09,1.66,0,.88-.17,1.21-.17,1.21,0,0-1.41-.12-2.06-.12-4.14,0-8.49,1.77-8.49,7.11,0,4.21,2.85,5.17,4.63,5.17,3.38,0,4.83-2.2,4.92-2.2l-.15,1.84h4.22l1.88-13.22c0-5.6-4.88-5.79-6.59-5.79l.02.02Zm1.02,10.77c.09.82-.5,4.59-3.39,4.59-1.49,0-1.87-1.14-1.87-1.81,0-1.31.72-2.9,4.22-2.9.82,0,.91.09,1.04.11h0Z"/>
          <path class="cls-2" d="m247.74,165.33c1.4-7.95,1.66-14.4,4.98-13.22.58-3.07,1.14-4.26,1.78-5.57,0,0-.3-.06-.92-.06-2.15,0-3.74,2.94-3.74,2.94l.43-2.7h-4.47l-2.99,18.61h4.92,0Z"/>
          <path class="cls-8" d="m178.59,161.61c0,2.83,1.58,4.08,3.82,4.07,1.75-.02,3.11-.51,3.59-.63l.6-4.08c-.33,0-.82.14-1.24.14-1.66,0-1.85-.89-1.74-1.55l1.35-8.33h2.54l.62-4.52h-2.39l.49-2.8"/>
          <path class="cls-8" d="m189.87,157.27c0,6.79,2.12,8.4,5.92,8.4,3.51,0,5.06-.79,5.06-.79l.85-4.63s-2.68,1.18-5.09,1.18c-5.14,0-4.24-3.84-4.24-3.84h9.73s.63-3.11.63-4.38c0-3.16-1.57-7.01-6.83-7.01-4.82,0-6.03,5.2-6.03,11.07Zm6.06-6.78c2.7,0,3.02,3.04,3.02,3.29h-6.13c0-.32.5-3.29,3.12-3.29h0Z"/>
          <path class="cls-8" d="m226.25,165.05l.86-5.24s-2.35,1.19-3.96,1.19c-3.39,0-4.76-2.6-4.76-5.39,0-5.67,2.92-8.79,6.18-8.79,2.44,0,4.4,1.37,4.4,1.37l.78-5.08s-2.9-1.18-5.39-1.18c-5.53,0-8.56,4.81-8.56,13.84,0,5.98.56,9.94,6.27,9.94,1.61,0,4.19-.66,4.19-.66h-.02Z"/>
          <path class="cls-8" d="m153.16,151.46s2.08-.85,5.22-.85c1.78,0,3.09.2,3.09,1.66,0,.88-.16,1.21-.16,1.21,0,0-1.41-.12-2.06-.12-4.13,0-8.49,1.77-8.49,7.11,0,4.21,2.85,5.17,4.63,5.17,3.38,0,4.83-2.2,4.92-2.2l-.15,1.84h4.22l1.88-13.22c0-5.61-4.88-5.79-6.58-5.79m3.38,10.77c.09.82-2.86,4.59-5.74,4.59-1.49,0-1.87-1.14-1.87-1.81,0-1.31.72-2.9,4.23-2.9.82,0,3.25.09,3.39.11h0Z"/>
          <path class="cls-8" d="m165.34,164.95c.12.04,1.36.59,5.37.59,1.08,0,7.25.28,7.25-6.1,0-5.96-5.71-4.78-5.71-7.19,0-1.19.93-1.56,2.63-1.56.67,0,3.28.22,3.28.22l.61-4.24s-1.68-.37-4.42-.37c-3.55,0-4.8,1.41-4.8,6.26,0,5.5,3.65,4.94,3.65,7.26,0,1.55-1.67,1.67-2.97,1.67"/>
          <path class="cls-8" d="m264.9,148.88s-1.81-2.5-4.63-2.5c-4.39,0-5.7,5.3-5.7,11.4,0,3.94-.4,7.79,3.59,7.79,2.87,0,4.46-2,4.46-2l-.21,1.71h4.66l3.66-22.83m-6.02,12.55c0,2.53-2.25,5.92-4.85,5.92-1.73,0-2.53-1.45-2.53-3.73,0-3.72,1.66-6.18,3.77-6.18,1.73,0,3.62,1.19,3.62,3.99h0Z"/>
          <path class="cls-8" d="m133.72,165.3l2.92-17.24.43,17.24h3.3l6.16-17.24-2.73,17.24h4.9l3.78-22.85h-5.58l-6.73,14.02-.25-14.02h-2.66l-8.15,22.85h4.62,0Z"/>
          <path class="cls-8" d="m202.6,165.33h4.92c1.4-7.95,1.65-14.4,4.98-13.22.58-3.07,1.14-4.26,1.78-5.57,0,0-.3-.06-.92-.06-2.14,0-3.73,2.94-3.73,2.94l.42-2.7"/>
          <path class="cls-8" d="m230.81,151.46s2.07-.85,5.22-.85c1.79,0,3.09.2,3.09,1.66,0,.88-.17,1.21-.17,1.21,0,0-1.41-.12-2.06-.12-4.14,0-8.49,1.77-8.49,7.11,0,4.21,2.85,5.17,4.63,5.17,3.38,0,4.83-2.2,4.92-2.2l-.15,1.84h4.22l1.88-13.22c0-5.61-4.88-5.79-6.58-5.79m3.37,10.77c.09.82-2.85,4.59-5.74,4.59-1.49,0-1.87-1.14-1.87-1.81,0-1.31.72-2.9,4.22-2.9.82,0,3.25.09,3.39.11h0Z"/>
          <path class="cls-8" d="m242.82,165.33h4.92c1.4-7.95,1.66-14.4,4.98-13.22.58-3.07,1.14-4.26,1.78-5.57,0,0-.3-.06-.92-.06-2.15,0-3.74,2.94-3.74,2.94l.43-2.7"/>
        </g>
        <g>
          <path id="_380520792" data-name=" 380520792" class="cls-4" d="m173.04,21.92l-27.13,63.09-18.24.02-15.45-52.84-1.25-3.98.1.06.17.09-.17-.09h0c.08.04.16.08.24.12,2.78,1.47,15.12,8.51,22.74,19.91,1.16,5.79,2.28,11.06,3.84,16.74l16.87-43.12s18.25,0,18.25,0Z"/>
          <path id="_380520192" data-name=" 380520192" class="cls-4" d="m246.43,64.42c-.13,13.13-11.88,21.61-29.99,21.61-7.72-.09-15.17-1.6-19.21-3.37l2.42-14.15,2.23,1.02c5.67,2.36,9.33,3.3,16.23,3.3,4.95,0,10.26-1.95,10.3-6.19.02-2.77-2.23-4.73-8.93-7.83-6.53-3.03-15.19-8.09-15.08-17.18.09-12.29,12.09-20.86,29.12-20.86,6.67,0,12.01,1.36,15.43,2.66l-2.33,13.69-1.57-.74c-3.16-1.27-7.25-2.51-12.9-2.42-6.73,0-9.87,2.81-9.87,5.45-.02,2.94,3.66,4.91,9.67,7.83,9.95,4.5,14.56,9.97,14.47,17.16h0Z"/>
          <path id="_380520096" data-name=" 380520096" class="cls-4" d="m293.14,21.92h-13.31c-4.13,0-7.22,1.13-9.02,5.26l-25.59,57.92h18.08s2.97-7.78,3.64-9.5c1.97,0,19.55.04,22.07.04.5,2.21,2.08,9.46,2.08,9.46h15.99l-13.94-63.18h0Zm-21.25,40.76c3.09-7.86,6.2-15.78,9.15-23.71,1.69,7.91,3.43,15.8,5.15,23.71h-14.3,0Z"/>
          <polygon id="_380520432" data-name=" 380520432" class="cls-4" points="180.01 21.86 197.24 21.86 186.46 85.08 169.23 85.08 180.01 21.86"/>
          <path id="_380520408" data-name=" 380520408" class="cls-3" d="m92.92,21.3l29.15.02c3.59.13,6.49,1.27,7.51,5.12l4.49,21.86c-7.63-11.4-19.96-18.43-22.74-19.91-.08-.04-.16-.09-.24-.13h0l.17.09-.17-.09c-.47-.25-.93-.5-1.41-.75-5.09-2.64-10.72-4.76-16.75-6.21h0Z"/>
        </g>
      </g>
    </g>
  </g>
</svg>