<?xml version="1.0" encoding="iso-8859-1"?>
<!-- Generator: Adobe Illustrator 19.0.0, SVG Export Plug-In . SVG Version: 6.00 Build 0)  -->
<svg version="1.1" id="Capa_1" xmlns="http://www.w3.org/2000/svg" xmlns:xlink="http://www.w3.org/1999/xlink" x="0px" y="0px"
	 viewBox="0 0 512.007 512.007" style="enable-background:new 0 0 512.007 512.007;" xml:space="preserve">
<circle style="fill:#EA971E;" cx="256.003" cy="256.003" r="256.003"/>
<path style="fill:#C27526;" d="M256.254,156.449c-0.166,0-0.335,0.008-0.501,0.009c-88.421,0.372-194.84,99.354-194.84,99.354
	L311.13,506.029c97.093-21.312,173.529-97.722,194.877-194.801l-55.416-55.416C403.631,212.196,320.956,156.449,256.254,156.449z"/>
<path style="fill:#FFFFFF;" d="M450.592,255.812c0,0-105.819,99.363-194.339,99.363S60.914,255.812,60.914,255.812
	s106.82-99.363,195.34-99.363S450.592,255.812,450.592,255.812z"/>
<path style="fill:#BCD8F2;" d="M256.254,156.449c-0.166,0-0.335,0.008-0.501,0.009v198.708c0.166,0.001,0.335,0.009,0.501,0.009
	c88.52,0,194.339-99.363,194.339-99.363S344.773,156.449,256.254,156.449z"/>
<circle style="fill:#6DC3B6;" cx="255.756" cy="255.647" r="72.112"/>
<path style="fill:#38979E;" d="M327.864,255.649c0-39.826-32.286-72.112-72.112-72.112V327.76
	C295.579,327.76,327.864,295.474,327.864,255.649z"/>
<circle style="fill:#57565C;" cx="255.756" cy="255.647" r="27.791"/>
<path style="fill:#3E3E42;" d="M283.543,255.649c0-15.348-12.442-27.791-27.791-27.791v55.58
	C271.101,283.439,283.543,270.996,283.543,255.649z"/>
<circle style="fill:#FFFFFF;" cx="233.557" cy="233.557" r="22.092"/>
<g>
</g>
<g>
</g>
<g>
</g>
<g>
</g>
<g>
</g>
<g>
</g>
<g>
</g>
<g>
</g>
<g>
</g>
<g>
</g>
<g>
</g>
<g>
</g>
<g>
</g>
<g>
</g>
<g>
</g>
</svg>
